<svg width="20" height="22" viewBox="0 0 20 22" fill="none" xmlns="http://www.w3.org/2000/svg">
<path fill-rule="evenodd" clip-rule="evenodd" d="M0.663246 2.32163C0.663246 1.06493 1.682 0.0461731 2.9387 0.0461731H13.3408C14.5975 0.0461731 15.6163 1.06493 15.6163 2.32163V3.11882H14.0993V2.32163C14.0993 1.90273 13.7597 1.56315 13.3408 1.56315H2.9387C2.51981 1.56315 2.18022 1.90273 2.18022 2.32163V15.3243C2.18022 15.7432 2.5198 16.0827 2.93871 16.0827H3.70235V17.5997H2.93871C1.68201 17.5997 0.663246 16.581 0.663246 15.3243V2.32163ZM7.45866 17.5997H13.3408C14.5975 17.5997 15.6163 16.581 15.6163 15.3243V6.87513H14.0993V15.3243C14.0993 15.7432 13.7597 16.0827 13.3408 16.0827H7.45866V17.5997Z" fill="white"/>
<rect x="5.54697" y="4.96344" width="13.436" height="16.0366" rx="1.51697" stroke="white" stroke-width="1.51697"/>
</svg>
